# xmcd
#
# Track frame offsets:
#	150
#	15099
#	31714
#	50037
#	64889
#	84676
#	97758
#	110976
#	129215
#	147773
#	163807
#
# Disc length: 2416 seconds
#
# Revision: 1
# Processed by: cddbd v1.5.1PL0 Copyright (c) Steve Scherf et al.
# Submitted via: audiograbber 1.83.01
#
DISCID=88096e0b
DTITLE=Laney Hicks - Matters of the Heart
DYEAR=2004
DGENRE=
TTITLE0=Half A Mind
TTITLE1=I Miss You Already
TTITLE2=My Baby's Gone
TTITLE3=Mr. Record Man
TTITLE4=Take Me As I Am
TTITLE5=Legend In My Time
TTITLE6=Am I That Easy To Forget
TTITLE7=All Wrapped Up In You
TTITLE8=Thats All That Matters
TTITLE9=You Don't Have Very Far To Go
TTITLE10=A Love Like This
EXTD=
EXTT0=
EXTT1=
EXTT2=
EXTT3=
EXTT4=
EXTT5=
EXTT6=
EXTT7=
EXTT8=
EXTT9=
EXTT10=Nameless Shuffle w/ Buddie Emmons
PLAYORDER=
